External Loads File
version=1
nRows=54
nColumns=13
Range=5.000000e-03-10 seconds
endheader
time 	forceRightX 	forceRightY 	forceRightZ 	pointRightX 	pointRightY 	pointRightZ 	forceLeftX 	forceLeftY 	forceLeftZ 	pointLeftX 	pointLeftY 	pointLeftZ 		
7.505000 -118.101515 364.240814 -0.000000 0.370486 0.428325 -0.099845 136.303618 131.042481 -0.000000 0.111223 0.217345 -0.335544
7.510000 -128.704431 408.072575 -0.000000 0.374732 0.418707 -0.099549 133.408171 124.313147 -0.000000 0.106424 0.225936 -0.335360
7.515000 -139.541761 452.952384 -0.000000 0.378619 0.408675 -0.099298 131.203748 118.268743 -0.000000 0.102206 0.234786 -0.335222
7.520000 -149.780941 497.589489 -0.000000 0.382156 0.398420 -0.099204 129.567949 112.570492 -0.000000 0.098541 0.244109 -0.335143
7.525000 -159.591165 540.245393 -0.000000 0.385195 0.388121 -0.099220 128.134209 107.215235 -0.000000 0.095459 0.253488 -0.335062
7.530000 -167.843607 579.643553 -0.000000 0.388139 0.377732 -0.099400 126.884732 101.922838 -0.000000 0.092983 0.263081 -0.335019
7.535000 -174.836528 614.394031 -0.000000 0.389979 0.367311 -0.099077 125.559558 96.779994 -0.000000 0.091154 0.272877 -0.335144
7.540000 -179.964745 643.866317 -0.000000 0.391471 0.356757 -0.099162 124.087310 91.663213 -0.000000 0.089845 0.282637 -0.335295
7.545000 -182.888228 667.908662 -0.000000 0.392536 0.346016 -0.099035 122.352339 86.499693 -0.000000 0.089185 0.292480 -0.335373
7.550000 -184.074059 686.596500 -0.000000 0.393337 0.335266 -0.099390 120.182633 81.332752 -0.000000 0.089174 0.302298 -0.335648
7.555000 -182.941498 700.538931 -0.000000 0.393664 0.324484 -0.099416 117.624466 75.960460 -0.000000 0.089738 0.312303 -0.335898
7.560000 -179.393833 710.302097 -0.000000 0.393404 0.313566 -0.099400 114.714943 70.196261 -0.000000 0.090911 0.322317 -0.336102
7.565000 -173.765007 716.344380 -0.000000 0.392788 0.302877 -0.098601 111.413295 63.877631 -0.000000 0.093089 0.332395 -0.337235
7.570000 -165.490030 719.303348 -0.000000 0.391053 0.292342 -0.099052 107.650334 56.763092 -0.000000 0.095335 0.342550 -0.337289
7.575000 -154.273973 719.699812 -0.000000 0.389056 0.281846 -0.098724 103.259923 48.802864 -0.000000 0.097697 0.352895 -0.336416
7.580000 -141.910604 717.582411 -0.000000 0.386464 0.271707 -0.098397 98.026867 40.356029 -0.000000 0.101122 0.362679 -0.336515
7.585000 -126.522647 713.713117 -0.000000 0.383317 0.261686 -0.097953 92.114177 31.283095 -0.000000 0.105014 0.372563 -0.336522
7.590000 -108.493426 708.258550 -0.000000 0.379640 0.251833 -0.097726 85.546655 21.740629 -0.000000 0.109438 0.382462 -0.336461
7.595000 -88.382744 701.256624 -0.000000 0.375495 0.242208 -0.097451 78.266682 11.893911 -0.000000 0.114427 0.392248 -0.336485
7.600000 -67.267714 692.578619 -0.000000 0.371074 0.232950 -0.097483 70.147396 2.031163 -0.000000 0.119889 0.401791 -0.336451
7.605000 -44.678530 682.163042 -0.000000 0.365952 0.224063 -0.097367 61.105685 -7.603641 -0.000000 0.125867 0.411153 -0.336325
7.610000 -21.950353 669.703937 -0.000000 0.360444 0.215581 -0.097217 51.184540 -16.505224 -0.000000 0.132218 0.420105 -0.336371
7.615000 1.006511 655.003621 -0.000000 0.354537 0.207459 -0.097136 40.587363 -24.322851 -0.000000 0.139006 0.428824 -0.336382
7.620000 22.979133 637.901606 -0.000000 0.348251 0.199809 -0.097011 29.652101 -30.677398 -0.000000 0.146076 0.437123 -0.336445
7.625000 44.102405 618.355556 -0.000000 0.341683 0.192726 -0.096866 18.668889 -35.288832 -0.000000 0.154065 0.444871 -0.337237
7.630000 62.716036 596.568947 -0.000000 0.334714 0.186104 -0.096646 7.978248 -37.774132 -0.000000 0.161746 0.452302 -0.337349
7.635000 79.448145 572.749286 -0.000000 0.327528 0.179898 -0.096391 -2.234149 -37.831276 -0.000000 0.169962 0.459282 -0.337243
7.640000 92.952797 547.444123 -0.000000 0.320092 0.174366 -0.096107 -11.666669 -35.243341 -0.000000 0.178036 0.465778 -0.337132
7.645000 103.975448 520.999718 -0.000000 0.312409 0.169185 -0.095935 -20.171525 -29.970406 -0.000000 0.186211 0.471830 -0.336827
7.650000 112.739555 493.792465 -0.000000 0.304442 0.164601 -0.095604 -27.616906 -22.127297 -0.000000 0.194631 0.477263 -0.336882
7.655000 119.831711 466.035482 -0.000000 0.296271 0.160654 -0.095360 -33.950320 -11.942674 -0.000000 0.203495 0.482114 -0.336779
7.660000 124.834759 438.114183 -0.000000 0.287962 0.157339 -0.095271 -39.157067 0.153704 -0.000000 0.212230 0.486196 -0.336898
7.665000 128.871608 409.977175 -0.000000 0.279291 0.154722 -0.095119 -43.329359 13.693574 -0.000000 0.220971 0.489883 -0.336950
7.670000 132.320522 381.728682 -0.000000 0.270262 0.152630 -0.094999 -46.600107 28.027977 -0.000000 0.229645 0.492839 -0.337163
7.675000 135.533942 353.443869 -0.000000 0.260987 0.151239 -0.094894 -49.193493 42.480360 -0.000000 0.238234 0.495295 -0.337406
7.680000 138.900704 325.093922 -0.000000 0.251430 0.150650 -0.094820 -51.396296 56.541739 -0.000000 0.246722 0.497049 -0.337591
7.685000 142.583510 296.604894 -0.000000 0.241673 0.150762 -0.094836 -53.521567 69.973742 -0.000000 0.255153 0.498223 -0.337895
7.690000 146.448579 267.908876 -0.000000 0.231790 0.151442 -0.094836 -55.874800 82.791359 -0.000000 0.263502 0.498356 -0.338314
7.695000 149.860149 239.143989 -0.000000 0.221972 0.152900 -0.094868 -58.847747 95.105601 -0.000000 0.271474 0.498091 -0.338785
7.700000 152.655193 210.166580 -0.000000 0.212272 0.155030 -0.094926 -62.634307 107.272273 -0.000000 0.279420 0.497091 -0.338689
7.705000 154.154993 181.185272 -0.000000 0.202747 0.157636 -0.094980 -67.590248 119.688204 -0.000000 0.287107 0.495306 -0.338978
7.710000 153.870604 152.475773 -0.000000 0.193690 0.160991 -0.094771 -74.015041 132.924968 -0.000000 0.294555 0.492689 -0.339213
7.715000 151.638247 124.287876 -0.000000 0.184616 0.164893 -0.095045 -81.968030 147.748997 -0.000000 0.301632 0.489571 -0.339584
7.720000 147.238290 97.294085 -0.000000 0.176114 0.169364 -0.095055 -91.692453 164.814724 -0.000000 0.308362 0.485811 -0.339816
7.725000 140.963461 71.939173 -0.000000 0.167923 0.174283 -0.095094 -103.164482 184.845381 -0.000000 0.314778 0.481701 -0.340026
7.730000 133.327689 48.519835 -0.000000 0.159995 0.179875 -0.095058 -116.161330 208.498789 -0.000000 0.320925 0.476615 -0.340233
7.735000 124.813766 27.563356 -0.000000 0.152528 0.185967 -0.095086 -130.826409 235.977182 -0.000000 0.326735 0.470580 -0.340453
7.740000 116.025474 9.352887 -0.000000 0.145410 0.192596 -0.095168 -147.018984 267.345624 -0.000000 0.332311 0.463939 -0.340713
7.745000 107.501512 -5.876759 -0.000000 0.138645 0.199678 -0.095264 -164.534670 302.355844 -0.000000 0.337582 0.456683 -0.340936
7.750000 99.684689 -18.037040 -0.000000 0.132374 0.207235 -0.095439 -182.912172 340.527003 -0.000000 0.342637 0.448784 -0.340932
7.755000 92.872143 -27.226548 -0.000000 0.126436 0.215249 -0.095456 -201.164264 381.324819 -0.000000 0.347789 0.440316 -0.341064
7.760000 87.326136 -33.312989 -0.000000 0.120978 0.223601 -0.095492 -219.433241 423.388885 -0.000000 0.352425 0.431451 -0.341096
7.765000 83.160271 -36.460512 -0.000000 0.116122 0.232235 -0.095259 -237.244668 465.661339 -0.000000 0.356592 0.422223 -0.341156
7.770000 80.328896 -37.034524 -0.000000 0.111759 0.241196 -0.095290 -253.515188 507.547744 -0.000000 0.360691 0.412700 -0.340985
